<svg width="40" height="40" viewBox="0 0 40 40" fill="none" xmlns="http://www.w3.org/2000/svg">
<path d="M27.55 9.11667V0L38.3334 10.7833H29.2167C28.7747 10.7833 28.3508 10.6077 28.0382 10.2952C27.7256 9.98262 27.55 9.55869 27.55 9.11667Z" fill="#FD9796"/>
<path d="M38.3333 10.7833V38.3333C38.3333 38.7754 38.1577 39.1993 37.8451 39.5118C37.5326 39.8244 37.1087 40 36.6666 40H3.33329C2.89127 40 2.46734 39.8244 2.15478 39.5118C1.84222 39.1993 1.66663 38.7754 1.66663 38.3333V1.66667C1.66663 1.22464 1.84222 0.800716 2.15478 0.488155C2.46734 0.175595 2.89127 1.036e-08 3.33329 0L27.55 0L38.3333 10.7833Z" fill="#FC5A5A"/>
<path d="M9.8667 27.9509H8.75003C8.69239 27.951 8.63534 27.9393 8.58249 27.9163C8.52963 27.8933 8.48212 27.8596 8.44296 27.8173C8.4038 27.775 8.37384 27.725 8.35498 27.6706C8.33611 27.6161 8.32876 27.5583 8.33337 27.5008V19.1675C8.33337 19.057 8.37727 18.951 8.45541 18.8729C8.53355 18.7947 8.63953 18.7508 8.75003 18.7508H11.1834C13.6778 18.7175 14.925 19.6647 14.925 21.5925C14.8584 23.3925 13.7945 24.3425 11.7334 24.4425H10.2834V27.5008C10.288 27.5583 10.2806 27.6161 10.2618 27.6706C10.2429 27.725 10.2129 27.775 10.1738 27.8173C10.1346 27.8596 10.0871 27.8933 10.0342 27.9163C9.98139 27.9393 9.92434 27.951 9.8667 27.9509ZM10.2834 20.2592V22.8592C10.3834 22.8592 10.5834 22.8758 10.8834 22.9092C12.2084 23.0425 12.8584 22.5925 12.825 21.5592C12.825 20.6592 12.1834 20.2259 10.8834 20.2592C10.6858 20.3036 10.4809 20.3036 10.2834 20.2592ZM16.3084 27.5008V19.1675C16.3084 19.057 16.3523 18.951 16.4304 18.8729C16.5085 18.7947 16.6145 18.7508 16.725 18.7508H19.45C22.5167 18.7508 24.0584 20.3342 24.1 23.3925C24.1417 26.4508 22.5167 27.9842 19.45 27.9842H16.725C16.6642 27.985 16.604 27.9724 16.5485 27.9475C16.4931 27.9225 16.4438 27.8857 16.4041 27.8396C16.3644 27.7935 16.3352 27.7394 16.3187 27.6808C16.3022 27.6223 16.2986 27.5609 16.3084 27.5008ZM18.25 20.2259V26.3759H19.3C21.1334 26.4425 22.0334 25.4258 22 23.3258C21.9667 21.2258 21.0667 20.1925 19.3 20.2259H18.25ZM27.2584 27.9509H26.1417C26.0312 27.9509 25.9252 27.907 25.8471 27.8288C25.7689 27.7507 25.725 27.6447 25.725 27.5342V19.1675C25.725 19.057 25.7689 18.951 25.8471 18.8729C25.9252 18.7947 26.0312 18.7508 26.1417 18.7508H31.25C31.3605 18.7508 31.4665 18.7947 31.5447 18.8729C31.6228 18.951 31.6667 19.057 31.6667 19.1675V19.8758C31.6667 19.9864 31.6228 20.0923 31.5447 20.1705C31.4665 20.2486 31.3605 20.2925 31.25 20.2925H27.675V22.5008H31.0084C31.1189 22.5008 31.2249 22.5447 31.303 22.6229C31.3811 22.701 31.425 22.807 31.425 22.9175V23.6342C31.425 23.7447 31.3811 23.8507 31.303 23.9288C31.2249 24.007 31.1189 24.0508 31.0084 24.0508H27.675V27.5008C27.6796 27.5583 27.6723 27.6161 27.6534 27.6706C27.6346 27.725 27.6046 27.775 27.5654 27.8173C27.5263 27.8596 27.4788 27.8933 27.4259 27.9163C27.3731 27.9393 27.316 27.951 27.2584 27.9509Z" fill="white"/>
</svg>
