<svg width="40" height="40" viewBox="0 0 40 40" fill="none" xmlns="http://www.w3.org/2000/svg">
<path d="M8 4H32C33.0609 4 34.0783 4.42143 34.8284 5.17157C35.5786 5.92172 36 6.93913 36 8V14.6667H4V8C4 6.93913 4.42143 5.92172 5.17157 5.17157C5.92172 4.42143 6.93913 4 8 4Z" fill="#49C8FF"/>
<path d="M4 14.667H36V25.3337H4V14.667Z" fill="#FF656E"/>
<path d="M4 25.333H36V31.9997C36 32.525 35.8965 33.0451 35.6955 33.5304C35.4945 34.0157 35.1999 34.4567 34.8284 34.8281C34.457 35.1995 34.016 35.4942 33.5307 35.6952C33.0454 35.8962 32.5253 35.9997 32 35.9997H8C7.47471 35.9997 6.95457 35.8962 6.46927 35.6952C5.98396 35.4942 5.54301 35.1995 5.17157 34.8281C4.80014 34.4567 4.5055 34.0157 4.30448 33.5304C4.10346 33.0451 4 32.525 4 31.9997V25.333Z" fill="#91DC45"/>
<path d="M15.7333 4H24.2666V36H15.7333V4Z" fill="#FFAE4B"/>
<path d="M24.4 14.667C24.9304 14.667 25.4391 14.8777 25.8142 15.2528C26.1893 15.6279 26.4 16.1366 26.4 16.667V23.3337C26.4 23.8641 26.1893 24.3728 25.8142 24.7479C25.4391 25.1229 24.9304 25.3337 24.4 25.3337H15.6C15.0695 25.3337 14.5608 25.1229 14.1858 24.7479C13.8107 24.3728 13.6 23.8641 13.6 23.3337V16.667C13.6 16.1366 13.8107 15.6279 14.1858 15.2528C14.5608 14.8777 15.0695 14.667 15.6 14.667H24.4ZM24.2653 16.799H15.732V23.199H24.2653V16.799Z" fill="white"/>
</svg>
