<svg width="45" height="45" viewBox="0 0 45 45" fill="none" xmlns="http://www.w3.org/2000/svg">
<path d="M36 13.5V36.7995C35.9895 38.028 35.85 38.4945 35.5995 38.9655C35.3385 39.4545 34.9545 39.8385 34.4655 40.0995L34.4115 40.128C33.948 40.3665 33.4605 40.4955 32.2275 40.5H12.846C11.508 40.5 11.0235 40.3605 10.536 40.0995C10.0523 39.844 9.65662 39.4489 9.4005 38.9655L9.3705 38.91C9.135 38.448 9.006 37.9605 9 36.7275V8.346C9 7.008 9.1395 6.5235 9.4005 6.036C9.6615 5.5455 10.0455 5.1615 10.5345 4.9005L10.59 4.8705C11.052 4.635 11.5395 4.506 12.7725 4.5H27L36 13.5Z" fill="#B96F02"/>
<path d="M21 8.25H22.5V12H21C20.8011 12 20.6103 11.921 20.4697 11.7803C20.329 11.6397 20.25 11.4489 20.25 11.25V9C20.25 8.80109 20.329 8.61032 20.4697 8.46967C20.6103 8.32902 20.8011 8.25 21 8.25ZM22.5 4.5H24C24.0985 4.5 24.196 4.5194 24.287 4.55709C24.378 4.59478 24.4607 4.65003 24.5303 4.71967C24.6 4.78931 24.6552 4.87199 24.6929 4.96299C24.7306 5.05398 24.75 5.15151 24.75 5.25V7.5C24.75 7.59849 24.7306 7.69602 24.6929 7.78701C24.6552 7.87801 24.6 7.96069 24.5303 8.03033C24.4607 8.09997 24.378 8.15522 24.287 8.19291C24.196 8.2306 24.0985 8.25 24 8.25H22.5V4.5ZM21 15.75H22.5V19.5H21C20.9015 19.5 20.804 19.4806 20.713 19.4429C20.622 19.4052 20.5393 19.35 20.4697 19.2803C20.4 19.2107 20.3448 19.128 20.3071 19.037C20.2694 18.946 20.25 18.8485 20.25 18.75V16.5C20.25 16.3011 20.329 16.1103 20.4697 15.9697C20.6103 15.829 20.8011 15.75 21 15.75ZM22.5 12H24C24.0985 12 24.196 12.0194 24.287 12.0571C24.378 12.0948 24.4607 12.15 24.5303 12.2197C24.6 12.2893 24.6552 12.372 24.6929 12.463C24.7306 12.554 24.75 12.6515 24.75 12.75V15C24.75 15.0985 24.7306 15.196 24.6929 15.287C24.6552 15.378 24.6 15.4607 24.5303 15.5303C24.4607 15.6 24.378 15.6552 24.287 15.6929C24.196 15.7306 24.0985 15.75 24 15.75H22.5V12ZM22.5 19.5H24C24.0985 19.5 24.196 19.5194 24.287 19.5571C24.378 19.5948 24.4607 19.65 24.5303 19.7197C24.6 19.7893 24.6552 19.872 24.6929 19.963C24.7306 20.054 24.75 20.1515 24.75 20.25V22.5C24.75 22.5985 24.7306 22.696 24.6929 22.787C24.6552 22.878 24.6 22.9607 24.5303 23.0303C24.4607 23.1 24.378 23.1552 24.287 23.1929C24.196 23.2306 24.0985 23.25 24 23.25H22.5V19.5ZM24 24.75C24.0985 24.75 24.196 24.7694 24.287 24.8071C24.378 24.8448 24.4607 24.9 24.5303 24.9697C24.6 25.0393 24.6552 25.122 24.6929 25.213C24.7306 25.304 24.75 25.4015 24.75 25.5V32.25C24.75 32.3485 24.7306 32.446 24.6929 32.537C24.6552 32.628 24.6 32.7107 24.5303 32.7803C24.4607 32.85 24.378 32.9052 24.287 32.9429C24.196 32.9806 24.0985 33 24 33H21C20.9015 33 20.804 32.9806 20.713 32.9429C20.622 32.9052 20.5393 32.85 20.4697 32.7803C20.4 32.7107 20.3448 32.628 20.3071 32.537C20.2694 32.446 20.25 32.3485 20.25 32.25V25.5C20.25 25.3011 20.329 25.1103 20.4697 24.9697C20.6103 24.829 20.8011 24.75 21 24.75H24ZM24 27.75H21V32.25H24V27.75Z" fill="white"/>
<path d="M27 4.5L36 13.5H29.5005C28.6305 13.5 28.3155 13.41 27.9975 13.239C27.6837 13.0728 27.4272 12.8163 27.261 12.5025L27.2355 12.4545C27.081 12.1515 27 11.826 27 10.9995V4.5Z" fill="black" fill-opacity="0.264"/>
</svg>
